<?xml version="1.0" encoding="UTF-8"?>
<svg version="1.1" xmlns="http://www.w3.org/2000/svg" width="24" height="25">
<path d="M0 0 C4.63235294 2.26470588 4.63235294 2.26470588 6 5 C6.03055192 7.82823491 5.93282706 10.64205732 5.83984375 13.46875 C5.73085981 16.17155657 5.73085981 16.17155657 8 18 C8 18.99 8 19.98 8 21 C6 20 4 19 2 18 C1.34 18.33 0.68 18.66 0 19 C-4.6478538 19.41314256 -7.24440152 18.78987316 -11 16 C-12.72370774 12.55258453 -12.50306672 8.76964661 -12 5 C-8.56737028 0.42316038 -5.60435084 -0.43955693 0 0 Z M-7.25 4.0625 C-9.33343223 6.00652406 -9.33343223 6.00652406 -9.5 9.5 C-9.31084119 12.96784402 -9.31084119 12.96784402 -7.375 15 C-4.18820399 16.34180884 -2.28890107 15.92947204 1 15 C3.35639408 13.06110754 3.35639408 13.06110754 3.375 9.5625 C3.35462901 6.01031126 3.35462901 6.01031126 1.25 4.0625 C-1.87797103 2.58540257 -4.12202897 2.58540257 -7.25 4.0625 Z " fill="#000000" transform="translate(14,2)"/>
</svg>
